<svg width="1440" height="295" viewBox="0 0 1440 295" fill="none" xmlns="http://www.w3.org/2000/svg">
<g clip-path="url(#clip0_21254_89788)">
<path d="M757.24 181.868C757.24 184.575 754.421 186.772 750.945 186.772C747.467 186.772 744.65 184.578 744.65 181.868C744.65 179.162 747.47 176.965 750.945 176.965C754.424 176.968 757.24 179.162 757.24 181.868Z" fill="white"/>
<path d="M739.41 190.527C744.736 190.527 749.055 186.593 749.055 181.74C749.055 176.887 744.736 172.953 739.41 172.953C734.083 172.953 729.765 176.887 729.765 181.74C729.765 186.593 734.083 190.527 739.41 190.527Z" fill="white"/>
<path d="M730.753 166.75C725.358 166.75 720.98 169.586 720.98 173.088C720.98 174.556 721.75 175.906 723.042 176.977C717.821 177.106 713.65 179.891 713.65 183.307C713.65 186.806 718.025 189.645 723.424 189.645C728.823 189.645 733.197 186.809 733.197 183.307C733.197 181.839 732.427 180.489 731.135 179.417C736.356 179.288 740.527 176.503 740.527 173.088C740.523 169.586 736.149 166.75 730.753 166.75Z" fill="#CDC4A9"/>
<path d="M780.698 176.973C775.303 176.973 770.925 179.809 770.925 183.311C770.925 186.81 775.299 189.649 780.698 189.649C786.094 189.649 790.472 186.813 790.472 183.311C790.472 179.809 786.097 176.973 780.698 176.973Z" fill="#CDC4A9"/>
<path d="M698.024 179.102C692.628 179.102 688.25 182.478 688.25 186.64C688.25 188.126 688.81 189.509 689.769 190.676C689.433 190.649 689.094 190.634 688.751 190.634C683.355 190.634 678.978 194.011 678.978 198.176C678.978 198.494 679.007 198.809 679.057 199.115C676.155 199.358 673.892 201.255 673.892 203.56C673.892 206.03 676.487 208.031 679.686 208.031C682.15 208.031 684.251 206.843 685.088 205.168C686.218 205.522 687.453 205.717 688.751 205.717C694.147 205.717 698.525 202.341 698.525 198.179C698.525 196.693 697.965 195.31 697.006 194.143C697.342 194.17 697.681 194.185 698.024 194.185C703.42 194.185 707.797 190.808 707.797 186.646C707.797 182.478 703.42 179.102 698.024 179.102Z" fill="#CDC4A9"/>
<path d="M818.181 206.847C817.582 206.847 817.012 206.892 816.488 206.976C816.491 206.934 816.498 206.892 816.498 206.847C816.498 204.545 813.744 202.675 810.348 202.675C809.692 202.675 809.063 202.747 808.473 202.873C807.1 201.511 804.669 200.478 801.744 200.067C803.272 198.948 804.198 197.48 804.198 195.869C804.198 192.583 800.34 189.882 795.403 189.564C795.406 189.456 795.413 189.345 795.413 189.237C795.413 183.361 789.513 178.598 782.236 178.598C779.229 178.598 776.458 179.414 774.238 180.783C773.191 180.222 771.87 179.883 770.43 179.883C769.775 179.883 769.146 179.955 768.556 180.081C767.564 179.099 766.023 178.289 764.145 177.758C764.801 176.906 765.173 175.948 765.173 174.931C765.173 173.511 764.455 172.203 763.239 171.147C763.335 170.7 763.384 170.237 763.384 169.766C763.384 165.727 759.79 162.453 755.357 162.453C755.287 162.453 755.222 162.456 755.152 162.459C753.199 158.561 748.465 155.809 742.938 155.809C742.836 155.809 742.734 155.812 742.632 155.815C742.53 155.812 742.427 155.809 742.325 155.809C736.795 155.809 732.064 158.561 730.108 162.459C730.039 162.456 729.973 162.453 729.903 162.453C725.47 162.453 721.876 165.727 721.876 169.766C721.876 173.806 725.47 177.08 729.903 177.08C730.513 177.08 731.102 177.017 731.672 176.9C731.465 177.152 731.27 177.41 731.086 177.677C729.63 177.296 727.986 177.08 726.247 177.08C722.096 177.08 718.499 178.298 716.704 180.078C716.111 179.949 715.482 179.88 714.83 179.88C713.39 179.88 712.069 180.219 711.022 180.78C708.805 179.411 706.031 178.595 703.024 178.595C695.747 178.595 689.848 183.358 689.848 189.234C689.848 189.345 689.854 189.453 689.857 189.561C684.92 189.879 681.062 192.58 681.062 195.866C681.062 197.477 681.991 198.945 683.516 200.064C680.591 200.475 678.16 201.505 676.787 202.87C676.194 202.741 675.565 202.672 674.912 202.672C671.516 202.672 668.762 204.539 668.762 206.844C668.762 206.886 668.769 206.931 668.772 206.973C668.248 206.892 667.679 206.844 667.079 206.844C664.582 206.844 662.56 207.63 662.56 208.599C662.56 209.568 664.582 210.355 667.079 210.355C668.449 210.355 669.671 210.118 670.502 209.743C671.618 210.523 673.18 211.012 674.912 211.012C676.678 211.012 678.266 210.505 679.389 209.695C681.263 210.514 683.684 211.012 686.333 211.012C688.411 211.012 690.348 210.706 691.995 210.178C693.764 212.167 696.465 213.44 699.493 213.44C702.362 213.44 704.938 212.296 706.703 210.487C707.952 211.216 709.437 211.642 711.028 211.642C712.623 211.642 714.105 211.216 715.357 210.487C715.637 210.502 715.917 210.511 716.2 210.511C718.028 210.511 719.771 210.211 721.355 209.665C723.24 210.505 725.69 211.012 728.368 211.012C730.743 211.012 732.937 210.613 734.719 209.938C735.177 210.088 735.714 210.205 736.304 210.277C737.295 210.739 738.494 211.012 739.789 211.012C740.813 211.012 741.779 210.838 742.632 210.538C743.482 210.838 744.447 211.012 745.474 211.012C746.769 211.012 747.968 210.739 748.96 210.277C749.549 210.205 750.086 210.091 750.544 209.938C752.323 210.613 754.52 211.012 756.895 211.012C759.576 211.012 762.024 210.505 763.908 209.665C765.493 210.208 767.235 210.511 769.063 210.511C769.347 210.511 769.627 210.502 769.907 210.487C771.155 211.216 772.641 211.642 774.235 211.642C775.829 211.642 777.312 211.216 778.56 210.487C780.326 212.299 782.902 213.44 785.771 213.44C788.798 213.44 791.499 212.167 793.268 210.178C794.912 210.706 796.852 211.012 798.927 211.012C801.576 211.012 803.997 210.517 805.871 209.695C806.994 210.502 808.579 211.012 810.348 211.012C812.08 211.012 813.642 210.526 814.759 209.743C815.589 210.115 816.811 210.355 818.181 210.355C820.678 210.355 822.701 209.568 822.701 208.599C822.701 207.633 820.678 206.847 818.181 206.847Z" fill="#E9C7B9"/>
<path d="M761.285 178.192C760.992 178.096 766.148 179.521 766.829 182.622C767.511 185.722 764.059 188.422 764.059 188.422C764.059 188.422 769.666 180.965 761.285 178.192Z" fill="#FAFDFF"/>
<path d="M755.103 163.332C755.103 163.332 760.857 165.319 761.276 169.52C761.691 173.721 755.103 175.522 755.103 175.522C755.103 175.522 765.861 169.646 755.103 163.332Z" fill="#FAFDFF"/>
<path d="M748.073 182.727C747.187 182.7 755.801 182.727 758.196 185.029C760.591 187.331 761.167 190.83 760.275 191.931C760.275 191.931 760.92 183.126 748.073 182.727Z" fill="#FAFDFF"/>
<path d="M775.888 197.627C772.297 190.73 760.277 191.931 760.277 191.931C772.966 188.969 775.815 197.402 775.888 197.627Z" fill="#D2E5F9"/>
<path d="M775.895 197.628C775.921 197.607 776.039 197.511 776.26 197.379C776.138 197.457 776.016 197.541 775.895 197.628Z" fill="#D2E5F9"/>
<path d="M790.471 199.433C782.114 194.659 777.529 196.618 776.261 197.381C783.419 192.666 790.471 199.433 790.471 199.433Z" fill="#D2E5F9"/>
<path d="M801.22 201.234C794.961 196.025 790.626 199.311 790.475 199.431C794.77 194.335 801.22 201.234 801.22 201.234Z" fill="#D2E5F9"/>
<path d="M801.219 201.232C794.961 196.023 790.626 199.309 790.474 199.429C790.471 199.432 790.471 199.432 790.471 199.432C782.114 194.657 777.528 196.617 776.26 197.379C776.138 197.457 776.016 197.541 775.895 197.628L775.891 197.631C775.891 197.628 775.888 197.628 775.888 197.625C772.297 190.729 760.277 191.929 760.277 191.929C760.277 191.929 764.154 189.709 768.084 189.568C772.011 189.43 773.437 190.528 773.437 190.528C773.437 190.528 778.349 183.923 784.785 187.326C791.225 190.729 790.458 193.181 790.458 193.181C790.458 193.181 793.201 192.929 796.825 194.18C800.448 195.432 801.219 201.232 801.219 201.232Z" fill="#CCAEA3"/>
<path d="M724.741 192.929C723.302 194.805 721.602 195.921 720.841 196.362C720.838 196.365 720.835 196.365 720.828 196.368C720.65 196.473 720.528 196.536 720.472 196.563C720.462 196.566 720.456 196.572 720.446 196.578C720.667 196.404 726.484 191.798 725.318 187.476C724.728 185.289 722.353 183.173 716.562 181.741C715.933 181.588 721.968 180.832 724.646 184.631C725.357 185.643 725.835 186.525 726.112 187.326C726.879 189.529 726.151 191.096 724.741 192.929Z" fill="#FAFDFF"/>
<path d="M729.765 197.555C725.496 194.638 720.654 196.498 720.446 196.579C720.456 196.573 720.463 196.567 720.473 196.564C720.591 196.495 720.71 196.432 720.828 196.369C720.835 196.366 720.838 196.366 720.842 196.363C726.659 193.326 729.765 197.555 729.765 197.555Z" fill="#D2E5F9"/>
<path d="M741.047 201.834C739.535 192.486 730.081 197.387 729.771 197.552C741.32 190.278 741.047 201.834 741.047 201.834Z" fill="#D2E5F9"/>
<path d="M749.721 203.934C746.542 198.43 741.42 201.593 741.067 201.821C747.748 196.948 749.721 203.934 749.721 203.934Z" fill="#D2E5F9"/>
<path d="M749.77 203.905C749.822 203.872 749.918 203.814 750.05 203.742C749.958 203.793 749.865 203.848 749.77 203.905Z" fill="#D2E5F9"/>
<path d="M758.196 205.037C756.911 203.272 755.333 202.72 753.884 202.705C752.266 202.687 750.814 203.335 750.132 203.698C752.296 202.477 753.91 202.162 755.103 202.306C755.103 202.306 755.106 202.306 755.112 202.306C757.767 202.627 758.324 205.211 758.196 205.037Z" fill="#D2E5F9"/>
<path d="M689.86 189.566C689.86 189.566 701.792 190.281 699.624 196.406C697.457 202.531 689.409 202.93 689.409 202.93C689.409 202.93 709.717 194.107 689.86 189.566Z" fill="#FAFDFF"/>
<path d="M701.41 205.043C701.41 205.043 698.399 199.266 690.846 202.75C690.846 202.75 697.566 200.349 701.41 205.043Z" fill="#FAFDFF"/>
<path d="M707.885 207.132C707.885 207.132 706.788 202.349 701.409 205.04C701.409 205.04 706.785 203.831 707.885 207.132Z" fill="#FAFDFF"/>
<path d="M716.029 207.132C716.029 207.132 712.165 203.03 707.886 207.132C707.886 207.132 712.102 204.191 716.029 207.132Z" fill="#FAFDFF"/>
<path d="M755.113 202.304C755.106 202.304 755.103 202.304 755.103 202.304C755.103 202.304 754.626 202.46 753.884 202.703C752.267 202.685 750.814 203.334 750.132 203.697C750.123 203.703 750.109 203.709 750.099 203.715C750.083 203.724 750.067 203.733 750.05 203.742C749.958 203.793 749.866 203.847 749.77 203.904C749.757 203.91 749.747 203.919 749.734 203.928C749.724 203.931 749.721 203.934 749.721 203.934C746.542 198.43 741.42 201.593 741.067 201.821C741.061 201.824 741.057 201.827 741.054 201.827C741.051 201.83 741.051 201.83 741.047 201.833C739.535 192.485 730.081 197.386 729.772 197.551C729.769 197.554 729.765 197.554 729.765 197.554C725.496 194.637 720.654 196.497 720.446 196.578C720.667 196.404 726.484 191.798 725.318 187.476L726.112 187.326C726.112 187.326 729.024 185.295 732.071 186.774C735.118 188.254 733.784 191.3 733.784 191.3C733.784 191.3 738.33 188.98 741.624 190.528C744.918 192.08 745.386 196.581 745.386 196.581C745.386 196.581 749.447 194.631 751.753 196.581C754.059 198.532 753.647 200.092 753.647 200.092C753.647 200.092 755.706 198.832 756.529 200.633C757.32 202.364 755.271 202.31 755.113 202.304Z" fill="#CCAEA3"/>
<path d="M22.9678 90.543C17.5721 90.543 13.1943 93.3789 13.1943 96.8811C13.1943 100.38 17.5688 103.219 22.9678 103.219C28.3635 103.219 32.7413 100.383 32.7413 96.8811C32.7413 93.3789 28.3668 90.543 22.9678 90.543Z" fill="#CDC4A9"/>
<path d="M60.4506 120.417C59.8511 120.417 59.2812 120.462 58.7574 120.546C58.7607 120.504 58.7673 120.462 58.7673 120.417C58.7673 118.115 56.0135 116.246 52.6173 116.246C51.9618 116.246 51.3326 116.318 50.743 116.444C49.3694 115.081 46.9383 114.049 44.0132 113.638C45.5417 112.518 46.4673 111.051 46.4673 109.439C46.4673 106.153 42.6099 103.452 37.6721 103.134C37.6754 103.026 37.682 102.915 37.682 102.807C37.682 96.9311 31.7823 92.1685 24.5058 92.1685C21.4983 92.1685 18.728 92.9848 16.5078 94.3532C15.4603 93.792 14.1393 93.4529 12.6998 93.4529C12.0443 93.4529 11.4151 93.5249 10.8255 93.651C9.83399 92.6697 8.29237 91.8594 6.41475 91.3282C7.07027 90.4759 7.4425 89.5186 7.4425 88.5013C7.4425 87.0818 6.72439 85.7734 5.50888 84.717C5.60441 84.2699 5.65382 83.8077 5.65382 83.3366C5.65382 79.2972 2.06 76.0231 -2.37381 76.0231C-2.44299 76.0231 -2.50887 76.0261 -2.57804 76.0291C-4.53143 72.1308 -9.26499 69.3789 -14.7924 69.3789C-14.8945 69.3789 -14.9967 69.3819 -15.0988 69.3849C-15.2009 69.3819 -15.303 69.3789 -15.4051 69.3789C-20.9359 69.3789 -25.6661 72.1308 -27.6228 76.0291C-27.692 76.0261 -27.7579 76.0231 -27.827 76.0231C-32.2609 76.0231 -35.8547 79.2972 -35.8547 83.3366C-35.8547 87.3759 -32.2609 90.65 -27.827 90.65C-27.2176 90.65 -26.628 90.587 -26.0581 90.4699C-26.2657 90.722 -26.46 90.9801 -26.6445 91.2472C-28.1005 90.8661 -29.7442 90.65 -31.4834 90.65C-35.634 90.65 -39.2311 91.8684 -41.0264 93.648C-41.6193 93.5189 -42.2485 93.4499 -42.9007 93.4499C-44.3402 93.4499 -45.6611 93.789 -46.7086 94.3502C-48.9255 92.9818 -51.6991 92.1655 -54.7066 92.1655C-61.9832 92.1655 -67.8829 96.9281 -67.8829 102.804C-67.8829 102.915 -67.8763 103.023 -67.873 103.131C-72.8108 103.449 -76.6681 106.15 -76.6681 109.436C-76.6681 111.048 -75.7392 112.515 -74.2141 113.635C-77.1392 114.046 -79.5702 115.075 -80.9438 116.441C-81.5368 116.312 -82.1659 116.243 -82.8182 116.243C-86.2143 116.243 -88.9682 118.109 -88.9682 120.414C-88.9682 120.456 -88.9616 120.501 -88.9583 120.543C-89.4821 120.462 -90.0519 120.414 -90.6515 120.414C-93.1484 120.414 -95.1709 121.2 -95.1709 122.169C-95.1709 123.139 -93.1484 123.925 -90.6515 123.925C-89.2811 123.925 -88.059 123.688 -87.2289 123.313C-86.1122 124.093 -84.5508 124.582 -82.8182 124.582C-81.0525 124.582 -79.4648 124.075 -78.3415 123.265C-76.4672 124.084 -74.0461 124.582 -71.3976 124.582C-69.3191 124.582 -67.3822 124.276 -65.7351 123.748C-63.9662 125.738 -61.2651 127.01 -58.2379 127.01C-55.3687 127.01 -52.7928 125.867 -51.0271 124.057C-49.7787 124.786 -48.2931 125.212 -46.702 125.212C-45.1077 125.212 -43.6254 124.786 -42.3736 124.057C-42.0937 124.072 -41.8136 124.081 -41.5303 124.081C-39.7021 124.081 -37.9596 123.781 -36.3751 123.235C-34.4909 124.075 -32.0402 124.582 -29.3621 124.582C-26.9871 124.582 -24.7932 124.183 -23.0111 123.508C-22.5533 123.658 -22.0163 123.775 -21.4267 123.847C-20.4352 124.309 -19.2361 124.582 -17.9416 124.582C-16.9171 124.582 -15.9519 124.408 -15.0988 124.108C-14.2489 124.408 -13.2837 124.582 -12.256 124.582C-10.9614 124.582 -9.76241 124.309 -8.77089 123.847C-8.18125 123.775 -7.64431 123.661 -7.18644 123.508C-5.40764 124.183 -3.2105 124.582 -0.83548 124.582C1.84589 124.582 4.29337 124.075 6.17757 123.235C7.76202 123.778 9.50459 124.081 11.3328 124.081C11.6161 124.081 11.8961 124.072 12.1761 124.057C13.4245 124.786 14.9101 125.212 16.5045 125.212C18.0988 125.212 19.5811 124.786 20.8296 124.057C22.5952 125.87 25.1712 127.01 28.0403 127.01C31.0675 127.01 33.7687 125.738 35.5376 123.748C37.1813 124.276 39.1215 124.582 41.1968 124.582C43.8452 124.582 46.2663 124.087 48.1407 123.265C49.2639 124.072 50.8484 124.582 52.6173 124.582C54.35 124.582 55.9114 124.096 57.0281 123.313C57.8582 123.685 59.0802 123.925 60.4506 123.925C62.9475 123.925 64.97 123.139 64.97 122.169C64.97 121.203 62.9475 120.417 60.4506 120.417Z" fill="#E9C7B9"/>
<path d="M3.555 91.7663C3.26183 91.6702 8.41705 93.0957 9.09892 96.1957C9.78079 99.2958 6.32861 101.997 6.32861 101.997C6.32861 101.997 11.9351 94.5392 3.555 91.7663Z" fill="#FAFDFF"/>
<path d="M-2.62695 76.9023C-2.62695 76.9023 3.12777 78.889 3.54612 83.0904C3.96117 87.2918 -2.62695 89.0924 -2.62695 89.0924C-2.62695 89.0924 8.13146 83.2164 -2.62695 76.9023Z" fill="#FAFDFF"/>
<path d="M-9.65702 96.2973C-10.5431 96.2703 -1.92914 96.2973 0.465643 98.5991C2.86043 100.901 3.43689 104.4 2.5442 105.501C2.5442 105.501 3.18983 96.6965 -9.65702 96.2973Z" fill="#FAFDFF"/>
<path d="M18.1575 111.197C14.5669 104.301 2.54688 105.501 2.54688 105.501C15.2356 102.539 18.085 110.972 18.1575 111.197Z" fill="#D2E5F9"/>
<path d="M18.1641 111.198C18.1904 111.177 18.309 111.081 18.5297 110.949C18.4078 111.027 18.2859 111.111 18.1641 111.198Z" fill="#D2E5F9"/>
<path d="M32.7409 113.004C24.3838 108.229 19.7985 110.189 18.5303 110.951C25.6883 106.236 32.7409 113.004 32.7409 113.004Z" fill="#D2E5F9"/>
<path d="M43.4894 114.805C37.2307 109.595 32.8957 112.881 32.7441 113.001C37.0396 107.905 43.4894 114.805 43.4894 114.805Z" fill="#D2E5F9"/>
<path d="M43.4888 114.803C37.2301 109.593 32.8951 112.879 32.7436 112.999C32.7403 113.002 32.7403 113.002 32.7403 113.002C24.3832 108.228 19.7979 110.187 18.5297 110.949C18.4078 111.028 18.2859 111.112 18.164 111.199L18.1607 111.202C18.1607 111.199 18.1575 111.199 18.1575 111.196C14.5669 104.299 2.54688 105.5 2.54688 105.5C2.54688 105.5 6.42399 103.279 10.3538 103.138C14.2803 103 15.7067 104.098 15.7067 104.098C15.7067 104.098 20.6181 97.493 27.0547 100.896C33.4946 104.299 32.7271 106.751 32.7271 106.751C32.7271 106.751 35.4711 106.499 39.0945 107.75C42.718 109.002 43.4888 114.803 43.4888 114.803Z" fill="#CCAEA3"/>
<path d="M0.465231 118.607C-0.819454 116.842 -2.39731 116.29 -3.8467 116.275C-5.46408 116.257 -6.91676 116.905 -7.59863 117.269C-5.43443 116.047 -3.82034 115.732 -2.62789 115.876C-2.62789 115.876 -2.6246 115.876 -2.61801 115.876C0.0370078 116.197 0.593699 118.781 0.465231 118.607Z" fill="#D2E5F9"/>
<path d="M360.63 164.872C356.456 164.872 352.52 165.553 349.044 166.753C348.33 165.829 347.49 164.983 346.515 164.242C340.911 159.983 332.475 160.214 324.823 164.1C326.483 157.444 324.919 151.055 319.961 147.289C317.668 145.548 314.895 144.579 311.904 144.279C309.12 140.078 305.013 136.686 300.111 134.58C298.168 122.546 286.79 113.309 273.04 113.309C268.333 113.309 263.903 114.392 260.036 116.298C255.948 114.413 251.003 113.309 245.673 113.309C231.598 113.309 220.187 121.009 220.187 130.507C220.187 132.065 220.5 133.571 221.073 135.006C208.315 135.945 198.384 143.238 198.384 152.099C198.384 161.598 209.794 169.298 223.87 169.298C237.946 169.298 249.356 161.598 249.356 152.099C249.356 151.58 249.317 151.067 249.247 150.56C252.031 155.01 256.274 158.606 261.383 160.802C263.218 172.17 273.475 181.035 286.197 181.983C286.549 182.32 286.912 182.65 287.307 182.953C292.91 187.208 301.346 186.98 308.998 183.094C307.338 189.75 308.903 196.139 313.861 199.905C321.437 205.664 334.195 203.23 343.184 194.609C347.743 197.499 353.877 199.272 360.626 199.272C374.702 199.272 386.113 191.572 386.113 182.073C386.116 172.572 374.705 164.872 360.63 164.872Z" fill="#FFFBEA"/>
<path d="M194.786 167.301C180.71 167.301 169.3 175.001 169.3 184.499C169.3 193.998 180.71 201.698 194.786 201.698C208.862 201.698 220.272 193.998 220.272 184.499C220.272 175.001 208.862 167.301 194.786 167.301Z" fill="#FFFBEA"/>
<path d="M385.788 188.612C386.678 187.774 387.343 186.904 387.775 186.01C388.348 186.034 388.937 186.049 389.543 186.049C394.356 186.049 398.26 185.214 398.26 184.185C398.26 183.156 394.356 182.321 389.543 182.321C389.066 182.321 388.598 182.333 388.14 182.348C385.933 174.294 364.1 167.965 337.478 167.965C332.125 167.965 326.966 168.223 322.117 168.697C325.537 166.944 327.76 164.159 327.76 161.011C327.76 156.366 322.944 152.492 316.54 151.6C312.041 144.839 303.723 140.097 294.019 139.401C290.053 126.503 276.037 116.969 259.352 116.969C242.707 116.969 228.714 126.461 224.712 139.314C202.467 139.482 184.537 148.533 184.537 159.679C184.537 165.312 189.116 170.411 196.518 174.099C179.794 176.578 168.238 181.868 168.238 187.999C168.238 189.203 168.696 190.37 169.539 191.493C155.513 191.715 144.445 194.289 144.445 197.435C144.445 200.727 156.564 203.394 171.509 203.394C179.939 203.394 187.469 202.545 192.433 201.216C199.884 202.599 208.594 203.394 217.91 203.394C227.133 203.394 235.767 202.611 243.168 201.255C248.024 202.632 253.357 203.394 258.957 203.394C260.294 203.394 261.618 203.346 262.923 203.262C265.673 206.098 272.571 208.112 280.671 208.112C287.681 208.112 293.792 206.6 297.092 204.355C299.596 205.114 304.26 205.627 309.616 205.627C315.282 205.627 320.177 205.054 322.552 204.22C325.635 205.078 330.306 205.627 335.544 205.627C342.363 205.627 348.223 204.694 350.855 203.358C410.583 202.995 457.339 199.703 457.339 195.694C457.339 192.516 427.847 189.782 385.788 188.612Z" fill="#E9C7B9"/>
<path d="M330.184 188.342C320.938 185.59 313.055 189.813 312.683 190.011L312.673 190.02C310.927 158.311 280.375 169.415 277.799 170.408C277.723 170.438 277.67 170.456 277.647 170.468C277.637 170.468 277.637 170.477 277.627 170.477L277.614 170.468C249.48 145.989 234.814 171.738 234.814 171.738C234.814 171.738 234.814 171.729 234.805 171.72C234.785 171.699 234.762 171.69 234.752 171.672C234.676 171.612 234.61 171.543 234.557 171.483L234.294 171.243C234.172 171.126 234.044 171.005 233.912 170.894C233.869 170.864 233.836 170.825 233.793 170.795C230.259 167.845 217.774 159.809 198.408 173.109C198.399 173.118 198.399 173.118 198.389 173.127C198.389 173.127 193.546 155.91 210.033 154.251C210.033 154.251 215.116 138.028 228.276 142.658C228.276 142.658 229.705 132.596 241.383 130.678C253.06 128.751 259.125 131.074 265.36 138.031C271.369 144.726 267.541 149.446 267.258 149.782C267.696 149.554 274.521 146.136 288.455 155.922C288.455 155.922 293.221 149.962 302.043 155.922C310.647 161.732 308.312 168.509 308.203 168.827C308.312 168.716 310.44 166.849 320.852 171.738C327.908 175.057 329.716 181.206 330.131 185.011C330.339 186.89 330.207 188.201 330.184 188.342Z" fill="#CCAEA3"/>
<path d="M233.794 170.801C230.259 167.851 217.775 159.814 198.409 173.115C199.183 172.379 216.935 155.829 233.794 170.801Z" fill="white"/>
<path d="M277.615 170.471C249.481 145.992 234.815 171.741 234.815 171.741C249.853 137.259 277.062 169.793 277.615 170.471Z" fill="white"/>
<path d="M312.683 190.013L312.673 190.022C310.927 158.314 280.375 169.418 277.799 170.411C294.427 163.35 303.423 164.61 308.19 168.841C315.727 175.51 312.782 189.536 312.683 190.013Z" fill="white"/>
<path d="M342.093 196.281C338.19 191.869 334.069 189.496 330.185 188.343C320.939 185.591 313.056 189.814 312.684 190.012C319.641 184.082 325.507 183.455 330.129 185.015C337.59 187.518 341.8 195.684 342.093 196.281Z" fill="white"/>
<path opacity="0.57" d="M353.84 193.002C353.84 193.002 365.29 187.663 376.193 192.381C387.097 197.098 389.007 199.706 389.007 199.706C389.007 199.706 369.651 188.905 353.84 193.002Z" fill="white"/>
<path opacity="0.57" d="M334.893 174.995C334.893 174.995 344.706 170.029 352.476 175.616C360.247 181.204 358.336 185.676 358.336 185.676C358.336 185.676 352.476 169.905 334.893 174.995Z" fill="white"/>
<path d="M1328.29 90.5436C1324.12 90.5436 1320.18 91.2248 1316.71 92.4253C1315.99 91.5009 1315.15 90.6547 1314.18 89.9134C1308.57 85.655 1300.14 85.8861 1292.49 89.7724C1294.15 83.1162 1292.58 76.727 1287.62 72.9608C1285.33 71.2202 1282.56 70.2509 1279.57 69.9508C1276.78 65.7494 1272.68 62.3582 1267.77 60.2515C1265.83 48.2175 1254.45 38.9805 1240.7 38.9805C1236 38.9805 1231.57 40.0638 1227.7 41.9725C1223.61 40.0878 1218.67 38.9805 1213.34 38.9805C1199.26 38.9805 1187.85 46.681 1187.85 56.1792C1187.85 57.7367 1188.16 59.2432 1188.74 60.6777C1175.98 61.617 1166.05 68.9094 1166.05 77.7714C1166.05 87.2695 1177.46 94.9701 1191.53 94.9701C1205.61 94.9701 1217.02 87.2695 1217.02 77.7714C1217.02 77.2522 1216.98 76.739 1216.91 76.2319C1219.69 80.6823 1223.94 84.2775 1229.05 86.4743C1230.88 97.8421 1241.14 106.707 1253.86 107.655C1254.21 107.991 1254.57 108.322 1254.97 108.625C1260.57 112.88 1269.01 112.652 1276.66 108.766C1275 115.422 1276.57 121.811 1281.52 125.577C1289.1 131.336 1301.86 128.902 1310.85 120.281C1315.41 123.17 1321.54 124.944 1328.29 124.944C1342.36 124.944 1353.78 117.244 1353.78 107.745C1353.78 98.2442 1342.37 90.5436 1328.29 90.5436Z" fill="#FFFBEA"/>
<path d="M1162.45 92.9727C1148.37 92.9727 1136.96 100.673 1136.96 110.171C1136.96 119.67 1148.37 127.37 1162.45 127.37C1176.53 127.37 1187.94 119.67 1187.94 110.171C1187.94 100.673 1176.53 92.9727 1162.45 92.9727Z" fill="#FFFBEA"/>
<path d="M1353.45 114.28C1354.34 113.442 1355.01 112.572 1355.44 111.678C1356.01 111.702 1356.6 111.717 1357.21 111.717C1362.02 111.717 1365.92 110.882 1365.92 109.853C1365.92 108.824 1362.02 107.989 1357.21 107.989C1356.73 107.989 1356.26 108.001 1355.81 108.016C1353.6 99.9618 1331.77 93.6327 1305.14 93.6327C1299.79 93.6327 1294.63 93.8908 1289.78 94.3649C1293.2 92.6123 1295.43 89.8274 1295.43 86.6794C1295.43 82.0338 1290.61 78.1595 1284.21 77.2682C1279.71 70.507 1271.39 65.7654 1261.68 65.0692C1257.72 52.1709 1243.7 42.6367 1227.02 42.6367C1210.37 42.6367 1196.38 52.1289 1192.38 64.9822C1170.13 65.1502 1152.2 74.2012 1152.2 85.3469C1152.2 90.9798 1156.78 96.0785 1164.18 99.7667C1147.46 102.246 1135.9 107.536 1135.9 113.667C1135.9 114.871 1136.36 116.038 1137.2 117.16C1123.18 117.383 1112.11 119.957 1112.11 123.102C1112.11 126.395 1124.23 129.062 1139.17 129.062C1147.6 129.062 1155.13 128.213 1160.1 126.884C1167.55 128.267 1176.26 129.062 1185.57 129.062C1194.8 129.062 1203.43 128.279 1210.83 126.923C1215.69 128.3 1221.02 129.062 1226.62 129.062C1227.96 129.062 1229.28 129.014 1230.59 128.93C1233.34 131.766 1240.24 133.78 1248.34 133.78C1255.35 133.78 1261.46 132.268 1264.76 130.023C1267.26 130.782 1271.93 131.295 1277.28 131.295C1282.95 131.295 1287.84 130.722 1290.22 129.888C1293.3 130.746 1297.97 131.295 1303.21 131.295C1310.03 131.295 1315.89 130.362 1318.52 129.026C1378.25 128.663 1425 125.371 1425 121.362C1425 118.184 1395.51 115.45 1353.45 114.28Z" fill="#E9C7B9"/>
<path d="M1297.85 114.014C1288.6 111.262 1280.72 115.485 1280.35 115.683L1280.34 115.692C1278.59 83.9831 1248.04 95.0868 1245.46 96.0802C1245.39 96.1102 1245.34 96.1282 1245.31 96.1402C1245.3 96.1402 1245.3 96.1492 1245.29 96.1492L1245.28 96.1402C1217.14 71.661 1202.48 97.4096 1202.48 97.4096C1202.48 97.4096 1202.48 97.4006 1202.47 97.3916C1202.45 97.3706 1202.43 97.3616 1202.42 97.3436C1202.34 97.2836 1202.28 97.2146 1202.22 97.1545L1201.96 96.9145C1201.84 96.7974 1201.71 96.6774 1201.58 96.5663C1201.53 96.5363 1201.5 96.4973 1201.46 96.4673C1197.92 93.5173 1185.44 85.4806 1166.07 98.7811C1166.06 98.7901 1166.06 98.7901 1166.05 98.7991C1166.05 98.7991 1161.21 81.5823 1177.7 79.9228C1177.7 79.9228 1182.78 63.6994 1195.94 68.3299C1195.94 68.3299 1197.37 58.2676 1209.05 56.35C1220.73 54.4233 1226.79 56.7461 1233.03 63.7024C1239.03 70.3976 1235.21 75.1182 1234.92 75.4543C1235.36 75.2262 1242.19 71.8081 1256.12 81.5944C1256.12 81.5944 1260.89 75.6344 1269.71 81.5944C1278.31 87.4043 1275.98 94.1805 1275.87 94.4986C1275.98 94.3876 1278.1 92.521 1288.52 97.4096C1295.57 100.729 1297.38 106.878 1297.8 110.683C1298 112.562 1297.87 113.873 1297.85 114.014Z" fill="#CCAEA3"/>
<path d="M1201.46 96.4689C1197.92 93.5189 1185.44 85.4823 1166.07 98.7827C1166.85 98.0475 1184.6 81.4969 1201.46 96.4689Z" fill="white"/>
<path d="M1245.28 96.1432C1217.14 71.664 1202.48 97.4126 1202.48 97.4126C1217.52 62.9311 1244.73 95.4649 1245.28 96.1432Z" fill="white"/>
<path d="M1280.35 115.681L1280.34 115.69C1278.59 83.9819 1248.04 95.0856 1245.46 96.0789C1262.09 89.0176 1271.09 90.278 1275.85 94.5094C1283.39 101.178 1280.45 115.204 1280.35 115.681Z" fill="white"/>
<path d="M1309.76 121.953C1305.85 117.541 1301.73 115.167 1297.85 114.015C1288.6 111.263 1280.72 115.486 1280.35 115.684C1287.3 109.754 1293.17 109.126 1297.79 110.687C1305.25 113.19 1309.46 121.356 1309.76 121.953Z" fill="white"/>
<path opacity="0.57" d="M1321.5 118.674C1321.5 118.674 1332.95 113.335 1343.86 118.052C1354.76 122.77 1356.67 125.378 1356.67 125.378C1356.67 125.378 1337.32 114.577 1321.5 118.674Z" fill="white"/>
<path opacity="0.57" d="M1302.56 100.667C1302.56 100.667 1312.37 95.7004 1320.14 101.288C1327.91 106.876 1326 111.348 1326 111.348C1326 111.348 1320.14 95.5774 1302.56 100.667Z" fill="white"/>
<path d="M552.208 147.012L778.411 427.773" stroke="#E5A717" stroke-width="1.40568" stroke-miterlimit="10"/>
<path d="M550.688 159.457L750.325 425.006" stroke="#E5A717" stroke-width="1.40568" stroke-miterlimit="10"/>
<path d="M549.932 171.215L716.924 416.709" stroke="#E5A717" stroke-width="1.40568" stroke-miterlimit="10"/>
<path d="M552.969 188.504L678.973 409.795" stroke="#E5A717" stroke-width="1.40568" stroke-miterlimit="10"/>
<path d="M561.316 234.836L643.296 404.26" stroke="#E5A717" stroke-width="1.40568" stroke-miterlimit="10"/>
<path d="M529.69 114.988L521.847 109.227L523.362 149.566V184.375L521.847 212.035L508.437 278.192L477.822 408.201L472.301 430.754H494.763C494.763 430.754 524.126 283.492 533.234 221.254C533.231 221.254 538.291 176.995 529.69 114.988Z" fill="#075143"/>
<path d="M459.855 430.752H480.816L525.72 212.034C525.72 212.034 528.682 169.62 521.85 109.225L508.081 99.082C508.081 99.082 523.115 169.617 517.04 202.812C517.037 202.812 499.325 291.257 459.855 430.752Z" fill="black"/>
<path d="M519.834 151.043L213.173 338.449" stroke="#E5A717" stroke-width="1.40568" stroke-miterlimit="10"/>
<path d="M520.595 161.414L254.922 337.066" stroke="#E5A717" stroke-width="1.40568" stroke-miterlimit="10"/>
<path d="M521.353 170.402L301.224 343.977" stroke="#E5A717" stroke-width="1.40568" stroke-miterlimit="10"/>
<path d="M522.871 182.852L349.804 352.276" stroke="#E5A717" stroke-width="1.40568" stroke-miterlimit="10"/>
<path d="M520.595 205.672L392.311 359.884" stroke="#E5A717" stroke-width="1.40568" stroke-miterlimit="10"/>
<path d="M515.281 236.098L424.193 362.65" stroke="#E5A717" stroke-width="1.40568" stroke-miterlimit="10"/>
<path d="M454.555 365.417L508.449 265.145" stroke="#E5A717" stroke-width="1.40568" stroke-miterlimit="10"/>
<path d="M561.267 103.169C561.267 103.169 552.824 166.727 556.619 192.248C556.619 192.248 556.263 225.532 633.107 441.559H621.37C621.37 441.559 545.432 235.129 548.667 195.186C548.667 195.186 543.607 155.308 554.932 97.9023L561.267 103.169Z" fill="#075143"/>
<path d="M599.632 441.56C599.632 441.56 548.014 255.111 542.954 225.146C542.954 225.146 536.722 176.73 537.895 160.909L538.231 156.837L527.344 159.067H525.242V149.685L538.906 147.39L541.268 113.349L554.932 97.9062C554.932 97.9062 547.171 151.549 547.846 167.911C547.846 167.911 549.025 195.796 550.376 211.779C550.376 211.779 555.604 249.583 595.584 364.839C611.534 410.82 618.859 432.323 621.907 441.563" fill="black"/>
<path d="M522.35 172.596L539.051 170.52L539.558 180.201L523.111 181.353L521.846 173.518L522.35 172.596Z" fill="black"/>
<path d="M523.868 194.953L540.569 192.879L541.073 202.56L524.629 203.713L523.364 195.877L523.868 194.953Z" fill="black"/>
<path d="M526.794 159.097L538.102 158.277L538.231 156.84L526.794 159.097Z" fill="#1C7F6C"/>
<path d="M527.216 181.072L538.524 180.25L538.653 178.812L527.216 181.072Z" fill="#1C7F6C"/>
<path d="M528.003 203.484L540.464 203.916V202.602L528.003 203.484Z" fill="#1C7F6C"/>
<path d="M556.763 263.188L521.171 383.053" stroke="#E5A717" stroke-width="1.40568" stroke-miterlimit="10"/>
<path d="M552.207 236.219L488.783 378.751" stroke="#E5A717" stroke-width="1.40568" stroke-miterlimit="10"/>
<path d="M544.617 206.48L446.276 371.373" stroke="#E5A717" stroke-width="1.40568" stroke-miterlimit="10"/>
<path d="M542.339 182.277L415.237 366.149" stroke="#E5A717" stroke-width="1.40568" stroke-miterlimit="10"/>
<path d="M542.339 170.52L379.816 360.924" stroke="#E5A717" stroke-width="1.40568" stroke-miterlimit="10"/>
<path d="M543.1 159.457L335.116 355.161" stroke="#E5A717" stroke-width="1.40568" stroke-miterlimit="10"/>
<path d="M543.1 148.391L278.185 350.319" stroke="#E5A717" stroke-width="1.40568" stroke-miterlimit="10"/>
<path d="M1131.45 297.828L1153.64 300.178L1188.21 297.003V293.477L1131.45 294.23V297.828Z" fill="#E7A817"/>
<path d="M1397.51 289.128C1397.98 287.952 1401.34 262.566 1401.34 262.566H1429.72L1445.2 268.442L1452.69 291.244L1397.51 289.128Z" fill="#FCEAD2"/>
<path d="M1357.22 248.551V291.24" stroke="#E6A817" stroke-width="1.47647" stroke-miterlimit="10"/>
<path d="M1058.94 232.004C1058.94 232.004 1162.93 290.301 1172.6 290.886C1182.28 291.475 1123.45 282.541 1047.33 232.004" stroke="#E6A817" stroke-width="0.738233" stroke-miterlimit="10"/>
<path d="M1186.66 244.227L1094.54 287.36L1195.69 244.227C1195.69 244.227 1139.19 280.491 1099.71 288.569" stroke="#E7A817" stroke-width="1.47647" stroke-miterlimit="10"/>
<path d="M971.732 218.844C971.732 218.844 882.166 259.981 855.863 272.322C829.56 284.662 952.636 242.585 981.535 220.254C981.535 220.254 872.633 269.618 849.943 272.322" stroke="#E7A817" stroke-width="1.47647" stroke-miterlimit="10"/>
<path d="M987.731 288.188H959.863V369.56H987.731V288.188Z" fill="#E7A817"/>
<path d="M739.77 213.434H712.42V217.194H739.77V213.434Z" fill="#E7A817" stroke="#E7A817" stroke-width="0.329406" stroke-miterlimit="10"/>
<path d="M1257.36 306.99H1230.27V259.508H1254.52L1257.36 306.99Z" fill="#E7A817"/>
<path d="M1201.11 302.053H1175.31L1177.63 253.395H1199.82L1201.11 302.053Z" fill="#E7A817"/>
<path d="M1132.22 296.65H1105.9L1108.27 247.992H1130.9L1132.22 296.65Z" fill="#E7A817"/>
<path d="M1067.68 298.764H1037.3L1040.03 242.582H1066.17L1067.68 298.764Z" fill="#E7A817"/>
<path d="M992.116 292.561H958.474L961.501 230.359H990.436L992.116 292.561Z" fill="#E7A817"/>
<path d="M1475.05 334.34C1480.21 323.372 1511.17 313.027 1511.17 313.027L1511.41 298.295H1475.13L1461.28 298.922L1459.28 286.894L1458.62 286.777L1328.32 289.127V300.645H1285.23V315.689L1305.61 322.741C1318 322.741 1318.33 331.999 1318.33 331.999L1316.19 405.248V407.366V427.344L1364.95 429.226C1364.95 429.226 1429.67 430.843 1475.04 431.996C1475.04 427.671 1475.04 424.748 1475.04 424.289C1475.05 422.098 1475.05 334.34 1475.05 334.34Z" fill="#CDC4A9"/>
<path d="M1247.99 298.764L1358.76 242.582L1362.33 245.835L1252.2 302.053H1248.46L1247.99 298.764Z" fill="#E7A817"/>
<path d="M1061.78 287.363L1172.6 290.889V293.356L1078.03 295.355L1061.78 293.356V287.363Z" fill="#E7A817"/>
<path d="M987.731 292.562H959.863V296.395H987.731V292.562Z" fill="#C18816"/>
<path d="M987.402 292.562H981.535V354.263H987.402V292.562Z" fill="#C18816"/>
<path d="M1108.9 258.215H1102.32L1101.67 277.256L1107.87 277.844L1108.9 258.803V258.215Z" fill="#E7A817"/>
<path d="M1070.58 255.629H1063.1V275.961H1070.58V255.629Z" fill="#E7A817"/>
<path d="M973.793 278.313L855.862 270.676H847.624V274.493H855.862L939.173 283.955L973.793 282.779V278.313Z" fill="#E7A817"/>
<path d="M956.249 242.582H968.118L967.087 265.795H955.054L956.249 242.582Z" fill="#E7A817"/>
<path d="M1245.23 251.516C1260.2 254.103 1339.11 252.551 1347 248.551" stroke="#E7A817" stroke-width="1.47647" stroke-miterlimit="10" stroke-linecap="round"/>
<path d="M1245.23 256.215C1245.23 256.215 1325.24 257.815 1338.65 252.785" stroke="#E7A817" stroke-width="1.47647" stroke-miterlimit="10" stroke-linecap="round"/>
<path d="M853.34 300.115V275.699L827.258 275.984L827.61 300.124L828.226 300.115H853.34Z" fill="#513080"/>
<path d="M883.959 300.586L923.948 303.995L923.438 278.961L878.454 275.516V300.115L883.959 300.586Z" fill="#513080"/>
<path d="M878.454 275.515L877.38 275.434L853.34 275.698V300.114H856.618L856.608 298.235L856.618 300.114H878.454V275.515Z" fill="#513080"/>
<path d="M722.694 277.133L706.181 277.313L706.859 301.483L722.694 301.303V277.133Z" fill="#513080"/>
<path d="M731.384 301.209V277.039L728.373 277.072V301.242L731.384 301.209Z" fill="#6D4646"/>
<path d="M779.852 300.662L780.027 276.504L755.463 276.774V300.935L779.852 300.662Z" fill="#500714"/>
<path d="M827.61 300.124L827.257 275.984L805.2 276.227L805.388 300.373L827.61 300.124Z" fill="#500714"/>
<path d="M805.388 300.373L805.2 276.227L780.027 276.503L779.853 300.661L805.388 300.373Z" fill="#4E3524"/>
<path d="M755.463 300.934V276.773L731.384 277.038V301.208L755.463 300.934Z" fill="#500714"/>
<path d="M728.372 301.24V277.07L722.693 277.133V301.303L728.372 301.24Z" fill="#6D4646"/>
<path d="M922.956 280.375L924.844 372.317" stroke="#CDC4AA" stroke-width="0.738233" stroke-miterlimit="10"/>
<path d="M855.863 276.504V320.625" stroke="#CDC4AA" stroke-width="0.738233" stroke-miterlimit="10"/>
<path d="M827.082 277.316V323.01" stroke="#CDC4AA" stroke-width="0.738233" stroke-miterlimit="10"/>
<path d="M805.2 276.227L805.388 300.373" stroke="#CDC4AA" stroke-width="0.738233" stroke-miterlimit="10"/>
<g opacity="0.34">
<path d="M884.044 300.016L924.03 303.425L923.52 278.39L878.539 274.945V299.547L884.044 300.016Z" fill="black"/>
</g>
<path d="M727.385 181.703H721.709V276.958L727.385 276.895V181.703Z" fill="#E7A817" stroke="#E7A817" stroke-width="0.329406" stroke-miterlimit="10"/>
<path d="M728.373 215.316C728.373 215.316 787.248 344.692 799.634 366.978" stroke="#E7A817" stroke-width="1.47647" stroke-miterlimit="10"/>
<path d="M722.694 215.316C722.694 215.316 669.587 354.011 664.425 363.764" stroke="#E7A817" stroke-width="1.47647" stroke-miterlimit="10"/>
<path d="M1405.44 204.031H1402.37V289.431H1405.44V204.031Z" fill="#E7A817"/>
<path d="M1421.2 220.727H1387.66V223.313H1421.2V220.727Z" fill="#E7A817"/>
<path d="M1242.83 260.214V250.668H1246.7L1247.98 260.214H1242.83Z" fill="#E7A817"/>
<path d="M1233.19 260.213L1233.79 250.184H1237.75L1239.04 260.918L1233.19 260.213Z" fill="#E7A817"/>
<path d="M1183.14 254.18L1184.08 243.289H1188.64L1189.5 254.18H1183.14Z" fill="#E7A817"/>
<path d="M1192.77 253.713V243.605H1196.38L1197.59 254.181L1192.77 253.713Z" fill="#E7A817"/>
<path d="M1114.67 247.991L1115.88 238.273L1120.18 238.901L1123.36 243.837V248.381L1114.67 247.991Z" fill="#E7A817"/>
<path d="M1125.77 237.727C1126.2 237.727 1129.21 237.727 1129.21 237.727L1130.27 248.566H1124.13V243.837L1125.77 237.727Z" fill="#E7A817"/>
<path d="M1043.63 242.582L1045.78 232.004H1050.34L1052.84 243.327L1043.63 242.582Z" fill="#E7A817"/>
<path d="M1056.1 243.327L1057.91 232.004H1061.01V242.976L1056.1 243.327Z" fill="#E7A817"/>
<path d="M975.296 230.362L977.753 218.844H982.912L983.772 231.067L975.296 230.362Z" fill="#E7A817"/>
<path d="M966.056 231.067L968.118 218.844H973.108V231.067H966.056Z" fill="#E7A817"/>
</g>
<defs>
<clipPath id="clip0_21254_89788">
<rect width="1440" height="475" fill="white"/>
</clipPath>
</defs>
</svg>
