<svg width="32" height="32" viewBox="0 0 32 32" fill="none" xmlns="http://www.w3.org/2000/svg">
<path d="M16 0C16 0 15.9241 8.9096 19.5072 12.4928C23.0904 16.0759 32 16 32 16C32 16 23.0904 15.9241 19.5072 19.5072C15.9241 23.0904 16 32 16 32C16 32 16.0759 23.0904 12.4928 19.5072C8.9096 15.9241 0 16 0 16C0 16 8.9096 16.0759 12.4928 12.4928C16.0759 8.9096 16 0 16 0Z" fill="#C4F928"/>
<path d="M26.6663 0C26.6663 0 26.641 2.96987 27.8354 4.16425C29.0298 5.35863 31.9997 5.33333 31.9997 5.33333C31.9997 5.33333 29.0298 5.30803 27.8354 6.50242C26.641 7.6968 26.6663 10.6667 26.6663 10.6667C26.6663 10.6667 26.6916 7.6968 25.4973 6.50242C24.3029 5.30803 21.333 5.33333 21.333 5.33333C21.333 5.33333 24.3029 5.35863 25.4973 4.16425C26.6916 2.96987 26.6663 0 26.6663 0Z" fill="#C4F928"/>
</svg>
