<svg width="21" height="21" viewBox="0 0 21 21" fill="none" xmlns="http://www.w3.org/2000/svg">
<path d="M1.29289 13.2929L2 12.5858L2 12.5858L1.29289 13.2929ZM6.87868 18.8787L6.17157 19.5858H6.17157L6.87868 18.8787ZM18.8787 6.87868L18.1716 7.58579L18.1716 7.58579L18.8787 6.87868ZM13.2929 1.29289L12.5858 2L12.5858 2L13.2929 1.29289ZM11.8787 1.29289L12.5858 2L12.5858 2L11.8787 1.29289ZM8.37868 3.37868C7.98816 3.7692 7.98816 4.40237 8.37868 4.79289C8.7692 5.18342 9.40237 5.18342 9.79289 4.79289L9.08579 4.08579L8.37868 3.37868ZM4.79289 9.79289C5.18342 9.40237 5.18342 8.7692 4.79289 8.37868C4.40237 7.98816 3.7692 7.98816 3.37868 8.37868L4.08579 9.08579L4.79289 9.79289ZM1.29289 11.8787L2 12.5858L2 12.5858L1.29289 11.8787ZM15.3787 10.3787C14.9882 10.7692 14.9882 11.4024 15.3787 11.7929C15.7692 12.1834 16.4024 12.1834 16.7929 11.7929L16.0858 11.0858L15.3787 10.3787ZM18.8787 8.29289L19.5858 9V9L18.8787 8.29289ZM8.29289 18.8787L7.58579 18.1716L7.58578 18.1716L8.29289 18.8787ZM11.7929 16.7929C12.1834 16.4024 12.1834 15.7692 11.7929 15.3787C11.4024 14.9882 10.7692 14.9882 10.3787 15.3787L11.0858 16.0858L11.7929 16.7929ZM6.37868 12.3787C5.98816 12.7692 5.98816 13.4024 6.37868 13.7929C6.7692 14.1834 7.40237 14.1834 7.79289 13.7929L7.08579 13.0858L6.37868 12.3787ZM13.7929 7.79289C14.1834 7.40237 14.1834 6.7692 13.7929 6.37868C13.4024 5.98816 12.7692 5.98816 12.3787 6.37868L13.0858 7.08579L13.7929 7.79289ZM1.29289 13.2929L0.585787 14L6.17157 19.5858L6.87868 18.8787L7.58579 18.1716L2 12.5858L1.29289 13.2929ZM18.8787 6.87868L19.5858 6.17157L14 0.585786L13.2929 1.29289L12.5858 2L18.1716 7.58579L18.8787 6.87868ZM11.8787 1.29289L11.1716 0.585787L8.37868 3.37868L9.08579 4.08579L9.79289 4.79289L12.5858 2L11.8787 1.29289ZM4.08579 9.08579L3.37868 8.37868L0.585786 11.1716L1.29289 11.8787L2 12.5858L4.79289 9.79289L4.08579 9.08579ZM16.0858 11.0858L16.7929 11.7929L19.5858 9L18.8787 8.29289L18.1716 7.58579L15.3787 10.3787L16.0858 11.0858ZM8.29289 18.8787L9 19.5858L11.7929 16.7929L11.0858 16.0858L10.3787 15.3787L7.58579 18.1716L8.29289 18.8787ZM18.8787 6.87868L18.1716 7.58579V7.58579L18.8787 8.29289L19.5858 9C20.3668 8.21895 20.3668 6.95262 19.5858 6.17157L18.8787 6.87868ZM6.87868 18.8787L6.17157 19.5858C6.95262 20.3668 8.21895 20.3668 9 19.5858L8.29289 18.8787L7.58578 18.1716H7.58579L6.87868 18.8787ZM1.29289 13.2929L2 12.5858L2 12.5858L1.29289 11.8787L0.585786 11.1716C-0.195264 11.9526 -0.195261 13.219 0.585787 14L1.29289 13.2929ZM13.2929 1.29289L14 0.585786C13.219 -0.195264 11.9526 -0.195261 11.1716 0.585787L11.8787 1.29289L12.5858 2L12.5858 2L13.2929 1.29289ZM7.08579 13.0858L7.79289 13.7929L13.7929 7.79289L13.0858 7.08579L12.3787 6.37868L6.37868 12.3787L7.08579 13.0858Z" fill="#EEC25D"/>
</svg>
