<svg width="250" height="42" viewBox="0 0 250 42" fill="none" xmlns="http://www.w3.org/2000/svg">
<path d="M26 10C26 10 25.9241 18.9096 29.5072 22.4928C33.0904 26.0759 42 26 42 26C42 26 33.0904 25.9241 29.5072 29.5072C25.9241 33.0904 26 42 26 42C26 42 26.0759 33.0904 22.4928 29.5072C18.9096 25.9241 10 26 10 26C10 26 18.9096 26.0759 22.4928 22.4928C26.0759 18.9096 26 10 26 10Z" fill="#C4F928"/>
<path d="M36.6663 10C36.6663 10 36.641 12.9699 37.8354 14.1643C39.0298 15.3586 41.9997 15.3333 41.9997 15.3333C41.9997 15.3333 39.0298 15.308 37.8354 16.5024C36.641 17.6968 36.6663 20.6667 36.6663 20.6667C36.6663 20.6667 36.6916 17.6968 35.4973 16.5024C34.3029 15.308 31.333 15.3333 31.333 15.3333C31.333 15.3333 34.3029 15.3586 35.4973 14.1643C36.6916 12.9699 36.6663 10 36.6663 10Z" fill="#C4F928"/>
<path d="M54 16.7474L63.677 26.6912L73.3541 16.7474V36.0481H70.4871V24.0655L63.677 30.9011L56.8692 24.0655V36.0481H54V16.7474Z" fill="#C4F928"/>
<path d="M75.9797 17.4711C75.9858 16.992 76.1807 16.5347 76.5221 16.1985C76.8635 15.8624 77.3237 15.6745 77.8029 15.6758C78.0388 15.6755 78.2725 15.7217 78.4906 15.8118C78.7087 15.9019 78.9069 16.0341 79.0738 16.2008C79.2408 16.3675 79.3732 16.5656 79.4636 16.7835C79.554 17.0015 79.6005 17.2351 79.6005 17.4711C79.6011 17.9504 79.4128 18.4107 79.0762 18.752C78.7397 19.0933 78.2821 19.2881 77.8029 19.2942C77.3219 19.2859 76.863 19.0911 76.5229 18.751C76.1828 18.4109 75.9881 17.952 75.9797 17.4711ZM76.3833 21.6462H79.2502V36.0412H76.3833V21.6462Z" fill="#C4F928"/>
<path d="M96.0854 15.6758V36.0481H93.3229V33.768C92.7728 34.5713 92.0315 35.2251 91.1657 35.6705C90.3 36.1159 89.3371 36.339 88.3637 36.3195C84.344 36.3195 81.1268 32.9956 81.1268 28.8414C81.1268 24.6871 84.344 21.3888 88.3637 21.3888C89.3043 21.3704 90.2356 21.5776 91.0798 21.9928C91.924 22.408 92.6565 23.0193 93.2162 23.7755V15.6804L96.0854 15.6758ZM88.714 33.5013C89.6337 33.5036 90.5334 33.2331 91.2994 32.7241C92.0654 32.2151 92.6633 31.4904 93.0175 30.6416C93.3717 29.7928 93.4662 28.8581 93.2892 27.9556C93.1122 27.0531 92.6716 26.2233 92.023 25.5712C91.3745 24.9191 90.5472 24.4739 89.6456 24.292C88.7441 24.11 87.8089 24.1994 86.9582 24.5489C86.1074 24.8985 85.3795 25.4924 84.8663 26.2556C84.3531 27.0188 84.0777 27.917 84.0749 28.8367C84.0669 29.4494 84.1812 30.0574 84.4112 30.6253C84.6411 31.1932 84.9821 31.7095 85.4142 32.1439C85.8462 32.5783 86.3606 32.9222 86.9272 33.1552C87.4939 33.3883 88.1013 33.506 88.714 33.5013Z" fill="#C4F928"/>
<path d="M112.918 15.6758V36.0481H110.158V33.768C109.607 34.5709 108.866 35.2243 108 35.6697C107.135 36.115 106.172 36.3383 105.199 36.3195C101.177 36.3195 97.9618 32.9956 97.9618 28.8414C97.9618 24.6871 101.177 21.3888 105.199 21.3888C106.139 21.3708 107.07 21.5781 107.915 21.9933C108.759 22.4085 109.491 23.0196 110.051 23.7755V15.6804L112.918 15.6758ZM105.542 33.5013C106.462 33.5036 107.361 33.2331 108.127 32.7241C108.893 32.2151 109.491 31.4904 109.846 30.6416C110.2 29.7928 110.294 28.8581 110.117 27.9556C109.94 27.0531 109.5 26.2233 108.851 25.5712C108.203 24.9191 107.375 24.4739 106.474 24.292C105.572 24.11 104.637 24.1994 103.786 24.5489C102.935 24.8985 102.207 25.4924 101.694 26.2556C101.181 27.0188 100.906 27.917 100.903 28.8367C100.895 29.4494 101.009 30.0574 101.239 30.6253C101.469 31.1932 101.81 31.7095 102.242 32.1439C102.674 32.5783 103.189 32.9222 103.755 33.1552C104.322 33.3883 104.929 33.506 105.542 33.5013Z" fill="#C4F928"/>
<path d="M129.753 15.6758V36.0481H126.991V33.768C126.44 34.5709 125.699 35.2243 124.833 35.6697C123.967 36.115 123.005 36.3383 122.032 36.3195C118.012 36.3195 114.795 32.9956 114.795 28.8414C114.795 24.6871 118.012 21.3888 122.032 21.3888C122.971 21.3703 123.902 21.5769 124.746 21.9913C125.589 22.4057 126.322 23.0158 126.882 23.7709V15.6758H129.753ZM122.382 33.5013C123.301 33.5036 124.201 33.2331 124.967 32.7241C125.733 32.2151 126.331 31.4904 126.685 30.6416C127.039 29.7928 127.134 28.8581 126.957 27.9556C126.78 27.0531 126.339 26.2233 125.691 25.5712C125.042 24.9191 124.215 24.4739 123.313 24.292C122.412 24.11 121.477 24.1994 120.626 24.5489C119.775 24.8985 119.047 25.4924 118.534 26.2556C118.021 27.0188 117.745 27.917 117.743 28.8367C117.735 29.4494 117.849 30.0574 118.079 30.6253C118.309 31.1932 118.65 31.7095 119.082 32.1439C119.514 32.5783 120.028 32.9222 120.595 33.1552C121.162 33.3883 121.769 33.506 122.382 33.5013Z" fill="#C4F928"/>
<path d="M132.513 15.6758H135.38V36.0481H132.513V15.6758Z" fill="#C4F928"/>
<path d="M137.257 28.8368C137.257 24.7081 140.421 21.3842 144.709 21.3842C148.998 21.3842 152.053 24.4947 152.053 28.4611C152.054 28.886 152 29.3094 151.893 29.7206H140.205C140.581 31.8916 142.323 33.5547 144.709 33.5547C146.451 33.5547 147.576 32.8589 148.435 31.7316H151.598C150.933 33.3231 149.736 34.6347 148.212 35.4432C146.688 36.2517 144.931 36.507 143.24 36.1657C141.549 35.8244 140.029 34.9075 138.938 33.5713C137.847 32.235 137.253 30.5619 137.257 28.8368ZM149.026 27.2132C148.488 25.3088 146.908 24.0238 144.709 24.0238C142.511 24.0238 140.929 25.2833 140.339 27.2132H149.026Z" fill="#C4F928"/>
<path d="M153.929 21.6532H156.69V23.2351C157.153 22.6499 157.745 22.1784 158.418 21.8568C159.092 21.5352 159.831 21.3719 160.577 21.3795C161.508 21.3745 162.423 21.6211 163.225 22.093C164.027 22.565 164.687 23.2449 165.135 24.0608C165.579 23.2472 166.234 22.5685 167.031 22.0966C167.828 21.6246 168.738 21.3768 169.665 21.3795C170.37 21.3831 171.068 21.5264 171.717 21.8012C172.366 22.076 172.955 22.4769 173.448 22.9805C173.942 23.4842 174.331 24.0806 174.592 24.7355C174.854 25.3903 174.983 26.0905 174.972 26.7956V36.0435H172.112V27.438C172.119 26.6131 171.798 25.8191 171.22 25.2308C170.934 24.9395 170.593 24.7074 170.217 24.5479C169.841 24.3883 169.437 24.3044 169.028 24.3009C168.203 24.2938 167.409 24.6148 166.821 25.1931C166.233 25.7714 165.898 26.5598 165.891 27.3847V36.0435H163.017V27.438C163.017 25.5616 161.595 24.2209 159.935 24.2209C159.516 24.2197 159.1 24.303 158.714 24.4656C158.328 24.6283 157.978 24.867 157.686 25.1677C157.394 25.4683 157.165 25.8246 157.013 26.2155C156.862 26.6063 156.79 27.0237 156.803 27.4427V36.0481H153.929V21.6532Z" fill="#C4F928"/>
<path d="M176.849 28.8368C176.849 24.708 180.066 21.3842 184.086 21.3842C185.056 21.3664 186.015 21.5872 186.88 22.0273C187.745 22.4673 188.488 23.1131 189.045 23.9078V21.6556H191.807V36.0505H189.045V33.7704C188.494 34.5732 187.753 35.2267 186.887 35.6721C186.022 36.1174 185.059 36.3407 184.086 36.3219C180.066 36.3149 176.849 32.9911 176.849 28.8368ZM189.045 28.8368C189.037 27.9232 188.759 27.0323 188.245 26.2766C187.732 25.5209 187.006 24.9343 186.159 24.5907C185.313 24.2471 184.383 24.1619 183.488 24.3459C182.593 24.5299 181.773 24.9749 181.131 25.6247C180.488 26.2744 180.053 27.0999 179.879 27.9969C179.705 28.8939 179.801 29.8222 180.154 30.6648C180.508 31.5074 181.103 32.2265 181.864 32.7313C182.626 33.2361 183.52 33.5041 184.433 33.5013C185.044 33.5029 185.649 33.383 186.212 33.1485C186.776 32.914 187.287 32.5696 187.717 32.1354C188.146 31.7012 188.484 31.186 188.712 30.6196C188.94 30.0533 189.053 29.4472 189.045 28.8368Z" fill="#C4F928"/>
<path d="M194.568 21.6533H197.328V23.7965C198.256 22.3236 199.821 21.3842 201.911 21.3842C205.639 21.3842 207.835 24.0911 207.835 27.7652V36.0482H204.968V28.0319C204.968 25.8609 203.44 24.2001 201.322 24.2001C200.815 24.1964 200.312 24.2926 199.843 24.4832C199.373 24.6738 198.946 24.955 198.585 25.3109C198.224 25.6667 197.936 26.0901 197.739 26.557C197.542 27.0239 197.438 27.5251 197.434 28.0319V36.0482H194.568V21.6533Z" fill="#C4F928"/>
<path d="M228.538 31.2188H220.792L218.776 35.6133H215.835L224.788 16.3828L233.425 35.6133H230.437L228.538 31.2188ZM227.425 28.6523L224.741 22.5L221.929 28.6523H227.425Z" fill="#C4F928"/>
<path d="M239.389 17.5195V35.6133H236.658V17.5195H239.389Z" fill="#C4F928"/>
</svg>
