<svg width="26" height="28" viewBox="0 0 26 28" fill="none" xmlns="http://www.w3.org/2000/svg">
<path d="M24.6562 19.7029L18.9787 15.1845C18.8691 15.0972 18.7374 15.043 18.5986 15.0278C18.4599 15.0126 18.3197 15.0372 18.1941 15.0988C18.0686 15.1603 17.9627 15.2563 17.8886 15.3757C17.8146 15.4951 17.7753 15.6332 17.7754 15.7741V17.3416C17.7754 17.455 17.8009 17.5669 17.85 17.6689C17.899 17.771 17.9703 17.8604 18.0586 17.9306L23.1631 21.9931C23.2455 22.0593 23.341 22.107 23.4431 22.1331C23.5453 22.1592 23.6517 22.163 23.7555 22.1443C23.8592 22.1256 23.9578 22.0848 24.0447 22.0247C24.1315 21.9645 24.2048 21.8864 24.2594 21.7954C24.4838 21.4112 24.6882 21.0153 24.8715 20.6095C24.9412 20.4558 24.9579 20.283 24.9188 20.1187C24.8798 19.9543 24.7873 19.8079 24.6562 19.7029Z" fill="#075143"/>
<path d="M17.7754 22.4336V26.1087C17.7756 26.2358 17.8077 26.3608 17.8687 26.472C17.9297 26.5832 18.0176 26.6771 18.1242 26.7447C18.2307 26.8124 18.3525 26.8518 18.4782 26.8591C18.6039 26.8664 18.7294 26.8415 18.843 26.7867C19.8322 26.3124 20.7552 25.7087 21.5884 24.9913C21.5929 24.9891 21.5971 24.9862 21.6008 24.9827L21.606 24.9768C21.6779 24.9024 21.7334 24.8134 21.7689 24.7159C21.8044 24.6183 21.8191 24.5143 21.8121 24.4105C21.805 24.3068 21.7764 24.2058 21.7281 24.114C21.6798 24.0222 21.6128 23.9417 21.5316 23.8778L18.9787 21.8446C18.8692 21.7574 18.7375 21.7031 18.5988 21.688C18.4601 21.6728 18.32 21.6973 18.1944 21.7588C18.0689 21.8202 17.963 21.9161 17.8889 22.0354C17.8148 22.1548 17.7755 22.2928 17.7754 22.4336Z" fill="#075143"/>
<path d="M26 4.16462V15.3553C26 15.5938 25.9948 15.8283 25.9798 16.0609C25.9798 16.1129 25.9732 16.1604 25.9732 16.2118C25.9747 16.2216 25.9747 16.2316 25.9732 16.2414C25.9514 16.3797 25.8941 16.5097 25.8071 16.6187C25.72 16.7276 25.6062 16.8117 25.477 16.8624C25.3478 16.9132 25.2077 16.9289 25.0705 16.9081C24.9334 16.8872 24.8041 16.8305 24.6955 16.7435L18.2193 11.5899L18.2069 11.5807L18.0764 11.4779C17.9817 11.4031 17.9052 11.3075 17.8526 11.1984C17.8 11.0892 17.7728 10.9694 17.773 10.848V7.84498C17.7726 7.63248 17.6889 7.42877 17.5402 7.27839C17.3915 7.12801 17.1899 7.04319 16.9794 7.0425H16.2472C16.0364 7.04267 15.8343 7.12725 15.6852 7.27769C15.536 7.42813 15.4521 7.63214 15.4517 7.84498V27.1494C15.4516 27.3244 15.3953 27.4946 15.2913 27.6345C15.1873 27.7744 15.0412 27.8765 14.8749 27.9255C14.8749 27.9255 14.8651 27.9255 14.8598 27.9255C14.5127 27.9644 14.1596 27.9875 13.8059 28C13.7028 28 13.5997 28 13.4973 28C13.3504 28 13.2043 28 13.06 27.9928L12.8851 28V27.9941C12.7546 27.9987 12.6313 28 12.5014 28C12.399 28 12.2959 28 12.1915 28C11.8391 27.9875 11.486 27.9644 11.1375 27.9255C11.1323 27.9255 11.1265 27.9255 11.1225 27.9255C10.9563 27.8765 10.8104 27.7743 10.7066 27.6344C10.6028 27.4944 10.5468 27.3243 10.547 27.1494V7.84498C10.5466 7.63191 10.4625 7.4277 10.3131 7.27723C10.1637 7.12675 9.9612 7.04232 9.75016 7.0425H9.01797C8.80717 7.0425 8.605 7.12704 8.45594 7.27754C8.30687 7.42803 8.22313 7.63215 8.22313 7.84498V10.848C8.22329 10.9694 8.19604 11.0892 8.14346 11.1984C8.09088 11.3075 8.01435 11.4031 7.91968 11.4779L1.30581 16.7435C0.822249 17.1302 0.109633 16.8337 0.0267559 16.2414C0.0253458 16.2316 0.0253458 16.2216 0.0267559 16.2118C0.0267559 16.1604 0.0267568 16.1129 0.0215362 16.0609C0.00652691 15.8283 1.94185e-08 15.5938 1.94185e-08 15.3553V4.16462C-7.49617e-05 3.38423 0.216997 2.61952 0.626475 1.95763C1.03595 1.29574 1.62137 0.763309 2.316 0.421009C2.49985 0.330221 2.69004 0.253149 2.88505 0.19041H2.89027C2.98098 0.162079 3.07364 0.136383 3.16696 0.113323C3.28703 0.0836746 3.41037 0.0612744 3.53436 0.0421677C3.59962 0.0342614 3.66488 0.0243782 3.73013 0.0191073C3.78365 0.0125188 3.84238 0.00988185 3.8985 0.00724643C3.96376 0.00724643 4.0375 0 4.10798 0H21.8953C21.9658 0 22.0369 0.00461102 22.1048 0.00724643C22.1596 0.00724643 22.2183 0.0125188 22.2718 0.0191073C22.3371 0.0243782 22.4023 0.0342614 22.4676 0.0421677C22.5903 0.0612744 22.7149 0.0836746 22.835 0.113323C23.7366 0.331609 24.5391 0.849987 25.1132 1.58493C25.6874 2.31987 25.9998 3.22858 26 4.16462Z" fill="#075143"/>
<path d="M1.34171 19.7029L7.01913 15.1845C7.12875 15.0972 7.26048 15.043 7.39924 15.0278C7.538 15.0126 7.67819 15.0372 7.80375 15.0988C7.92931 15.1603 8.03518 15.2563 8.10924 15.3757C8.18329 15.4951 8.22254 15.6332 8.22249 15.7741V17.3416C8.22262 17.455 8.19719 17.567 8.14812 17.669C8.09905 17.7711 8.02763 17.8605 7.93927 17.9306L2.8348 21.9931C2.75236 22.0593 2.65689 22.107 2.55474 22.1331C2.4526 22.1592 2.34613 22.163 2.24241 22.1443C2.13869 22.1256 2.04011 22.0848 1.95322 22.0247C1.86633 21.9645 1.79312 21.8864 1.73848 21.7954C1.514 21.4113 1.30989 21.0154 1.12701 20.6095C1.05702 20.4559 1.04015 20.2831 1.07908 20.1187C1.11801 19.9543 1.2105 19.8079 1.34171 19.7029Z" fill="#075143"/>
<path d="M8.22198 22.4336V26.1087C8.22191 26.2359 8.18991 26.361 8.12897 26.4723C8.06803 26.5836 7.98014 26.6775 7.87351 26.7452C7.76688 26.8129 7.64499 26.8523 7.51923 26.8595C7.39347 26.8668 7.26793 26.8417 7.15436 26.7867C6.16521 26.3124 5.24216 25.7087 4.40897 24.9913C4.40452 24.9893 4.40053 24.9864 4.39722 24.9827L4.39135 24.9768C4.3195 24.9024 4.26401 24.8134 4.2285 24.7159C4.193 24.6183 4.17828 24.5143 4.1853 24.4105C4.19232 24.3068 4.22092 24.2058 4.26925 24.114C4.31757 24.0222 4.38453 23.9417 4.46574 23.8778L7.01862 21.8446C7.1282 21.7574 7.25987 21.7031 7.39857 21.688C7.53728 21.6728 7.67741 21.6973 7.80295 21.7588C7.92849 21.8202 8.03436 21.9161 8.10847 22.0354C8.18257 22.1548 8.2219 22.2928 8.22198 22.4336Z" fill="#075143"/>
</svg>
